<svg width="28" height="28" viewBox="0 0 28 28" fill="none" xmlns="http://www.w3.org/2000/svg">
<path d="M5.915 5.24999L6.30875 6.02874L6.79 6.99999H10.5V11.375H3.5V5.24999H5.915ZM6.4575 3.49999H2.625C2.39294 3.49999 2.17038 3.59218 2.00628 3.75627C1.84219 3.92037 1.75 4.14293 1.75 4.37499V12.25C1.75 12.4821 1.84219 12.7046 2.00628 12.8687C2.17038 13.0328 2.39294 13.125 2.625 13.125H11.375C11.6071 13.125 11.8296 13.0328 11.9937 12.8687C12.1578 12.7046 12.25 12.4821 12.25 12.25V6.12499C12.25 5.89293 12.1578 5.67037 11.9937 5.50627C11.8296 5.34218 11.6071 5.24999 11.375 5.24999H7.875L7.245 3.98124C7.17162 3.83561 7.05901 3.71338 6.91986 3.62835C6.78071 3.54331 6.62057 3.49886 6.4575 3.49999ZM19.915 5.24999L20.3088 6.02874L20.79 6.99999H24.5V11.375H17.5V5.24999H19.915ZM20.4575 3.49999H16.625C16.3929 3.49999 16.1704 3.59218 16.0063 3.75627C15.8422 3.92037 15.75 4.14293 15.75 4.37499V12.25C15.75 12.4821 15.8422 12.7046 16.0063 12.8687C16.1704 13.0328 16.3929 13.125 16.625 13.125H25.375C25.6071 13.125 25.8296 13.0328 25.9937 12.8687C26.1578 12.7046 26.25 12.4821 26.25 12.25V6.12499C26.25 5.89293 26.1578 5.67037 25.9937 5.50627C25.8296 5.34218 25.6071 5.24999 25.375 5.24999H21.875L21.245 3.98124C21.1716 3.83561 21.059 3.71338 20.9199 3.62835C20.7807 3.54331 20.6206 3.49886 20.4575 3.49999ZM5.915 16.625L6.30875 17.4037L6.79 18.375H10.5V22.75H3.5V16.625H5.915ZM6.4575 14.875H2.625C2.39294 14.875 2.17038 14.9672 2.00628 15.1313C1.84219 15.2954 1.75 15.5179 1.75 15.75V23.625C1.75 23.8571 1.84219 24.0796 2.00628 24.2437C2.17038 24.4078 2.39294 24.5 2.625 24.5H11.375C11.6071 24.5 11.8296 24.4078 11.9937 24.2437C12.1578 24.0796 12.25 23.8571 12.25 23.625V17.5C12.25 17.2679 12.1578 17.0454 11.9937 16.8813C11.8296 16.7172 11.6071 16.625 11.375 16.625H7.875L7.245 15.3562C7.17162 15.2106 7.05901 15.0884 6.91986 15.0033C6.78071 14.9183 6.62057 14.8739 6.4575 14.875ZM19.915 16.625L20.3088 17.4037L20.79 18.375H24.5V22.75H17.5V16.625H19.915ZM20.4575 14.875H16.625C16.3929 14.875 16.1704 14.9672 16.0063 15.1313C15.8422 15.2954 15.75 15.5179 15.75 15.75V23.625C15.75 23.8571 15.8422 24.0796 16.0063 24.2437C16.1704 24.4078 16.3929 24.5 16.625 24.5H25.375C25.6071 24.5 25.8296 24.4078 25.9937 24.2437C26.1578 24.0796 26.25 23.8571 26.25 23.625V17.5C26.25 17.2679 26.1578 17.0454 25.9937 16.8813C25.8296 16.7172 25.6071 16.625 25.375 16.625H21.875L21.245 15.3562C21.1716 15.2106 21.059 15.0884 20.9199 15.0033C20.7807 14.9183 20.6206 14.8739 20.4575 14.875Z" fill="white"/>
</svg>
