<svg width="21" height="21" viewBox="0 0 21 21" fill="none" xmlns="http://www.w3.org/2000/svg">
<path fill-rule="evenodd" clip-rule="evenodd" d="M6.5 4.5L6.5 10.5C6.5 11.0304 6.71071 11.5391 7.08579 11.9142C7.46086 12.2893 7.96957 12.5 8.5 12.5L17.5 12.5C18.0304 12.5 18.5391 12.2893 18.9142 11.9142C19.2893 11.5391 19.5 11.0304 19.5 10.5L19.5 4.5C19.5 3.96957 19.2893 3.46086 18.9142 3.08579C18.5391 2.71071 18.0304 2.5 17.5 2.5L8.5 2.5C7.96957 2.5 7.46086 2.71071 7.08579 3.08579C6.71071 3.46086 6.5 3.96957 6.5 4.5Z" stroke="white" stroke-linecap="round" stroke-linejoin="round"/>
<path d="M4.5 4.50003L4.5 11.495C4.5 12.2907 4.81607 13.0537 5.37868 13.6163C5.94129 14.179 6.70435 14.495 7.5 14.495H7.505L16.5 14.479" stroke="white" stroke-linecap="round" stroke-linejoin="round"/>
<path d="M2.5 6.50001L2.5 12.493C2.5 13.5539 2.92143 14.5713 3.67157 15.3214C4.42172 16.0716 5.43913 16.493 6.5 16.493H6.507L14.5 16.48" stroke="white" stroke-linecap="round" stroke-linejoin="round"/>
</svg>
