<svg width="26" height="26" viewBox="0 0 26 26" fill="none" xmlns="http://www.w3.org/2000/svg">
<path d="M13 22.75C15.1613 22.7499 17.2613 22.032 18.9703 20.709C20.6793 19.3861 21.9006 17.533 22.4423 15.4408M13 22.75C10.8388 22.7499 8.73876 22.032 7.02973 20.709C5.32069 19.3861 4.09942 17.533 3.55767 15.4408M13 22.75C15.6921 22.75 17.875 18.3842 17.875 13C17.875 7.61583 15.6921 3.25 13 3.25M13 22.75C10.3079 22.75 8.12501 18.3842 8.12501 13C8.12501 7.61583 10.3079 3.25 13 3.25M22.4423 15.4408C22.6428 14.6608 22.75 13.8428 22.75 13C22.7526 11.3231 22.3208 9.67417 21.4966 8.21383M22.4423 15.4408C19.5536 17.0432 16.3034 17.8811 13 17.875C9.6966 17.8811 6.4464 17.0432 3.55767 15.4408M3.55767 15.4408C3.35248 14.6434 3.2491 13.8233 3.25001 13C3.25001 11.2613 3.70501 9.62758 4.50342 8.21383M13 3.25C14.7292 3.24962 16.4274 3.70912 17.9205 4.58139C19.4135 5.45366 20.6477 6.70732 21.4966 8.21383M13 3.25C11.2708 3.24962 9.57263 3.70912 8.07956 4.58139C6.58649 5.45366 5.35226 6.70732 4.50342 8.21383M21.4966 8.21383C19.138 10.2572 16.1206 11.3798 13 11.375C9.75217 11.375 6.78167 10.1833 4.50342 8.21383" stroke="#E4403F" stroke-width="1.5" stroke-linecap="round" stroke-linejoin="round"/>
</svg>
