<svg width="57" height="62" viewBox="0 0 57 62" fill="none" xmlns="http://www.w3.org/2000/svg">
<g clip-path="url(#clip0_1_889)">
<path d="M21.586 0.347963C21.4758 0.349463 21.379 0.393143 21.2954 0.479003L20.6688 1.12295C20.5853 1.20881 20.5442 1.3068 20.5457 1.41692C20.5472 1.52704 20.5909 1.62387 20.6768 1.70743L25.7382 6.63281L20.8128 11.6943C20.7293 11.7801 20.6883 11.8781 20.6898 11.9882C20.6913 12.0983 20.7349 12.1952 20.8208 12.2787L21.4648 12.9054C21.5506 12.9889 21.6486 13.03 21.7587 13.0285C21.8688 13.027 21.9657 12.9833 22.0492 12.8974L27.8895 6.89579C27.9731 6.80993 28.0141 6.71194 28.0126 6.60183C28.0111 6.49171 27.9674 6.39487 27.8815 6.31132L21.8799 0.47104C21.7941 0.387488 21.6961 0.346463 21.586 0.347963ZM26.465 0.281488C26.3549 0.282989 26.2581 0.326668 26.1745 0.412529L25.5479 1.05648C25.4643 1.14234 25.4233 1.24033 25.4248 1.35045C25.4263 1.46056 25.47 1.5574 25.5558 1.64095L30.6173 6.56634L25.6919 11.6278C25.6084 11.7136 25.5673 11.8116 25.5688 11.9218C25.5703 12.0319 25.614 12.1287 25.6999 12.2123L26.3438 12.8389C26.4297 12.9225 26.5277 12.9635 26.6378 12.962C26.7479 12.9605 26.8447 12.9168 26.9283 12.8309L32.7686 6.82932C32.8521 6.74346 32.8931 6.64547 32.8916 6.53535C32.8901 6.42523 32.8465 6.3284 32.7606 6.24485L26.759 0.404565C26.6731 0.321013 26.5751 0.279988 26.465 0.281488Z" fill="#F1F1F1"/>
</g>
<path d="M3.34572e-07 33.0475C3.34572e-07 17.552 12.5621 4.98995 28.0576 4.98993L28.7813 4.99872C43.9422 5.38274 56.1143 17.794 56.1143 33.0475L56.1055 33.7712C55.7213 48.9319 43.3109 61.104 28.0576 61.1042L27.333 61.0954C12.4128 60.7173 0.386822 48.6914 0.00878939 33.7712L3.34572e-07 33.0475ZM28.0576 59.4782C42.6545 59.478 54.488 47.6444 54.4883 33.0475C54.4883 18.4504 42.6547 6.61709 28.0576 6.61688C13.4604 6.61691 1.62695 18.4503 1.62695 33.0475C1.62728 47.6445 13.4606 59.4782 28.0576 59.4782Z" fill="#F1F1F1"/>
<defs>
<clipPath id="clip0_1_889">
<rect width="13.012" height="16.2651" fill="white" transform="translate(18.915 13.2324) rotate(-90.7806)"/>
</clipPath>
</defs>
</svg>
