<svg width="17" height="17" viewBox="0 0 17 17" fill="none" xmlns="http://www.w3.org/2000/svg">
<path d="M8.50016 2.83332C9.67175 2.83332 10.6252 3.78674 10.6252 4.95832L12.0418 4.95832C12.0418 3.00545 10.453 1.41666 8.50016 1.41666C6.54729 1.41666 4.9585 3.00545 4.9585 4.95832L4.9585 6.37499L4.25016 6.37499C3.46887 6.37499 2.8335 7.01036 2.8335 7.79166L2.8335 14.1667C2.8335 14.9479 3.46887 15.5833 4.25016 15.5833L12.7502 15.5833C13.5315 15.5833 14.1668 14.9479 14.1668 14.1667L14.1668 7.79166C14.1668 7.01036 13.5315 6.37499 12.7502 6.37499L6.37516 6.37499L6.37516 4.95832C6.37516 3.78674 7.32858 2.83332 8.50016 2.83332ZM12.7516 14.1667L9.2085 14.1667L9.2085 12.5531C9.62995 12.3073 9.91683 11.8554 9.91683 11.3333C9.91683 10.552 9.28145 9.91666 8.50016 9.91666C7.71887 9.91666 7.0835 10.552 7.0835 11.3333C7.0835 11.8547 7.37037 12.3073 7.79183 12.5531L7.79183 14.1667L4.25016 14.1667L4.25016 7.79166L12.7502 7.79166L12.7516 14.1667Z" fill="white"/>
</svg>
