<svg width="17" height="17" viewBox="0 0 17 17" fill="none" xmlns="http://www.w3.org/2000/svg">
<path d="M10.8308 7.28876L8.8616 9.25793C8.74368 9.22657 8.62235 9.20992 8.50035 9.20834C8.12462 9.20834 7.76429 9.3576 7.49861 9.62328C7.23294 9.88895 7.08368 10.2493 7.08368 10.625C7.08526 10.747 7.10191 10.8683 7.13326 10.9863L6.58076 11.5388C6.51437 11.6046 6.46168 11.683 6.42572 11.7693C6.38975 11.8556 6.37124 11.9482 6.37124 12.0417C6.37124 12.1352 6.38975 12.2278 6.42572 12.3141C6.46168 12.4004 6.51437 12.4787 6.58076 12.5446C6.64661 12.611 6.72495 12.6637 6.81127 12.6996C6.89759 12.7356 6.99017 12.7541 7.08368 12.7541C7.17719 12.7541 7.26977 12.7356 7.35609 12.6996C7.44241 12.6637 7.52075 12.611 7.5866 12.5446L8.1391 11.9921C8.25701 12.0234 8.37835 12.0401 8.50035 12.0417C8.87607 12.0417 9.2364 11.8924 9.50208 11.6267C9.76776 11.3611 9.91701 11.0007 9.91701 10.625C9.91544 10.503 9.89878 10.3817 9.86743 10.2638L11.8366 8.29459C11.97 8.16121 12.0449 7.98031 12.0449 7.79168C12.0449 7.60305 11.97 7.42214 11.8366 7.28876C11.7032 7.15538 11.5223 7.08045 11.3337 7.08045C11.1451 7.08044 10.9641 7.15538 10.8308 7.28876ZM8.50035 2.83334C7.57015 2.83334 6.64906 3.01656 5.78967 3.37253C4.93028 3.7285 4.14942 4.25026 3.49167 4.908C2.16329 6.23639 1.41701 8.03806 1.41701 9.91668C1.41353 11.3196 1.83048 12.6913 2.6141 13.855C2.7193 14.0109 2.88213 14.1187 3.06678 14.1545C3.25142 14.1904 3.44276 14.1515 3.59868 14.0463C3.75461 13.9411 3.86235 13.7782 3.89822 13.5936C3.93409 13.4089 3.89513 13.2176 3.78993 13.0617C3.21938 12.2085 2.89125 11.2164 2.84059 10.1913C2.78992 9.1662 3.01862 8.14658 3.50227 7.24132C3.98591 6.33606 4.70633 5.57915 5.58662 5.05141C6.4669 4.52367 7.47399 4.24492 8.50035 4.24492C9.5267 4.24492 10.5338 4.52367 11.4141 5.05141C12.2944 5.57915 13.0148 6.33606 13.4984 7.24132C13.9821 8.14658 14.2108 9.1662 14.1601 10.1913C14.1094 11.2164 13.7813 12.2085 13.2108 13.0617C13.1586 13.1388 13.1221 13.2256 13.1034 13.3168C13.0848 13.4081 13.0843 13.5022 13.1021 13.5936C13.1199 13.6851 13.1555 13.7722 13.207 13.8498C13.2584 13.9275 13.3247 13.9942 13.402 14.0463C13.5193 14.1251 13.6574 14.167 13.7987 14.1667C13.9147 14.1669 14.029 14.1385 14.1315 14.0842C14.234 14.0298 14.3216 13.9511 14.3866 13.855C15.1702 12.6913 15.5872 11.3196 15.5837 9.91668C15.5837 8.03806 14.8374 6.23639 13.509 4.908C12.1806 3.57962 10.379 2.83334 8.50035 2.83334Z" fill="white"/>
</svg>
