<svg width="57" height="62" viewBox="0 0 57 62" fill="none" xmlns="http://www.w3.org/2000/svg">
<g clip-path="url(#clip0_1_882)">
<path d="M27.3427 0.375138C27.4528 0.376862 27.5496 0.420737 27.633 0.506767L28.2583 1.15199C28.3417 1.23801 28.3825 1.33609 28.3808 1.4462C28.379 1.55631 28.3352 1.65306 28.2491 1.73644L23.1777 6.65156L28.0929 11.723C28.1762 11.809 28.2171 11.9071 28.2153 12.0172C28.2136 12.1273 28.1697 12.2241 28.0837 12.3074L27.4385 12.9328C27.3525 13.0161 27.2544 13.057 27.1443 13.0553C27.0342 13.0535 26.9374 13.0097 26.854 12.9236L21.0259 6.91019C20.9425 6.82416 20.9017 6.72608 20.9034 6.61597C20.9052 6.50586 20.949 6.40911 21.0351 6.32573L27.0485 0.49762C27.1345 0.414242 27.2326 0.373415 27.3427 0.375138ZM22.4638 0.298781C22.5739 0.300505 22.6707 0.344381 22.754 0.43041L23.3794 1.07563C23.4627 1.16166 23.5036 1.25973 23.5019 1.36984C23.5001 1.47996 23.4563 1.5767 23.3702 1.66008L18.2988 6.57521L23.2139 11.6466C23.2973 11.7327 23.3381 11.8307 23.3364 11.9408C23.3347 12.051 23.2908 12.1477 23.2048 12.2311L22.5596 12.8564C22.4735 12.9398 22.3755 12.9806 22.2653 12.9789C22.1552 12.9772 22.0585 12.9333 21.9751 12.8473L16.147 6.83383C16.0636 6.7478 16.0228 6.64973 16.0245 6.53961C16.0262 6.4295 16.0701 6.33275 16.1561 6.24937L22.1696 0.421263C22.2556 0.337885 22.3537 0.297058 22.4638 0.298781Z" fill="#F1F1F1"/>
</g>
<path d="M3.34572e-07 33.0638C3.34572e-07 17.5683 12.562 5.00623 28.0576 5.00623L28.7813 5.01501C43.9422 5.39904 56.1143 17.8103 56.1143 33.0638L56.1055 33.7875C55.7213 48.9482 43.3109 61.1203 28.0576 61.1205L27.333 61.1117C12.4128 60.7337 0.386823 48.7077 0.00878939 33.7875L3.34572e-07 33.0638ZM28.0576 59.4945C42.6545 59.4943 54.488 47.6607 54.4883 33.0638C54.4883 18.4667 42.6547 6.63339 28.0576 6.63318C13.4603 6.63318 1.62695 18.4666 1.62695 33.0638C1.62728 47.6609 13.4605 59.4945 28.0576 59.4945Z" fill="#F1F1F1"/>
<defs>
<clipPath id="clip0_1_882">
<rect width="13.012" height="16.2651" fill="white" transform="matrix(0.0156484 -0.999878 -0.999878 -0.0156484 29.9878 13.265)"/>
</clipPath>
</defs>
</svg>
