<svg width="26" height="26" viewBox="0 0 26 26" fill="none" xmlns="http://www.w3.org/2000/svg">
<path d="M17.3551 19.0775C15.3959 20.5982 12.9309 21.3152 10.4617 21.0824C7.99261 20.8497 5.70496 19.6847 4.06446 17.8247C2.42397 15.9647 1.55394 13.5495 1.63148 11.0706C1.70902 8.59175 2.72829 6.23559 4.48182 4.48176C6.23566 2.72823 8.59181 1.70896 11.0707 1.63142C13.5496 1.55388 15.9648 2.42391 17.8248 4.0644C19.6848 5.7049 20.8497 7.99254 21.0825 10.4617C21.3152 12.9308 20.5983 15.3959 19.0776 17.355L24.0176 22.295C24.178 22.444 24.2953 22.6335 24.357 22.8435C24.4188 23.0535 24.4228 23.2763 24.3686 23.4884C24.3143 23.7005 24.2039 23.8941 24.0489 24.0487C23.8939 24.2033 23.7001 24.3132 23.4878 24.3669C23.276 24.4212 23.0534 24.4174 22.8435 24.3559C22.6336 24.2944 22.4442 24.1775 22.2951 24.0175L17.3551 19.0775ZM18.6876 11.375C18.702 10.4059 18.5236 9.44352 18.1627 8.54396C17.8019 7.6444 17.2657 6.82558 16.5855 6.13512C15.9052 5.44467 15.0945 4.89637 14.2004 4.52212C13.3063 4.14787 12.3468 3.95514 11.3775 3.95514C10.4083 3.95514 9.44868 4.14787 8.5546 4.52212C7.66052 4.89637 6.84978 5.44467 6.16954 6.13512C5.48931 6.82558 4.95316 7.6444 4.59228 8.54396C4.2314 9.44352 4.05299 10.4059 4.06744 11.375C4.09607 13.2949 4.87883 15.1264 6.24662 16.474C7.61441 17.8215 9.45742 18.5769 11.3775 18.5769C13.2976 18.5769 15.1406 17.8215 16.5084 16.474C17.8762 15.1264 18.6589 13.2949 18.6876 11.375Z" fill="#E4403F"/>
</svg>
