<svg width="26" height="26" viewBox="0 0 26 26" fill="none" xmlns="http://www.w3.org/2000/svg">
<path d="M17.3549 19.0774C15.3958 20.5981 12.9308 21.3151 10.4616 21.0824C7.99248 20.8496 5.70484 19.6847 4.06434 17.8247C2.42385 15.9647 1.55382 13.5494 1.63136 11.0706C1.70889 8.59169 2.72817 6.23553 4.4817 4.4817C6.23553 2.72817 8.59169 1.70889 11.0706 1.63136C13.5494 1.55382 15.9647 2.42385 17.8247 4.06434C19.6847 5.70484 20.8496 7.99248 21.0824 10.4616C21.3151 12.9308 20.5981 15.3958 19.0774 17.3549L24.0174 22.2949C24.1779 22.4439 24.2952 22.6334 24.3569 22.8434C24.4187 23.0535 24.4227 23.2763 24.3684 23.4884C24.3142 23.7005 24.2038 23.894 24.0488 24.0486C23.8938 24.2032 23.6999 24.3131 23.4877 24.3668C23.2758 24.4211 23.0533 24.4173 22.8434 24.3559C22.6335 24.2944 22.444 24.1775 22.2949 24.0174L17.3549 19.0774ZM18.6874 11.3749C18.7019 10.4058 18.5235 9.44346 18.1626 8.5439C17.8017 7.64434 17.2656 6.82552 16.5853 6.13506C15.9051 5.44461 15.0944 4.89631 14.2003 4.52206C13.3062 4.14781 12.3466 3.95508 11.3774 3.95508C10.4081 3.95508 9.44856 4.14781 8.55448 4.52206C7.6604 4.89631 6.84966 5.44461 6.16942 6.13506C5.48919 6.82552 4.95304 7.64434 4.59216 8.5439C4.23128 9.44346 4.05287 10.4058 4.06732 11.3749C4.09595 13.2948 4.8787 15.1264 6.24649 16.4739C7.61428 17.8215 9.4573 18.5768 11.3774 18.5768C13.2975 18.5768 15.1405 17.8215 16.5083 16.4739C17.8761 15.1264 18.6588 13.2948 18.6874 11.3749Z" fill="white"/>
</svg>
